/* XPM */
static char * whole_xpm[] = {
"48 48 38 1",
" 	c None",
".	c #4582B4",
"+	c #4582B5",
"@	c #4682B3",
"#	c #4682B4",
"$	c #4C86B6",
"%	c #4F88B8",
"&	c #528AB9",
"*	c #578EBB",
"=	c #6396C0",
"-	c #6F9DC4",
";	c #77A3C8",
">	c #7AA5C9",
",	c #7DA7CA",
"'	c #80A9CC",
")	c #83ABCD",
"!	c #86ADCE",
"~	c #89AFCF",
"{	c #8CB1D0",
"]	c #9ABBD6",
"^	c #A0BFD8",
"/	c #A3C1DA",
"(	c #AEC8DE",
"_	c #BCD2E4",
":	c #BFD4E5",
"<	c #C5D8E7",
"[	c #C8DAE9",
"}	c #DFE9F2",
"|	c #E2EBF3",
"1	c #E5EDF4",
"2	c #EBF1F7",
"3	c #EEF3F8",
"4	c #F0F5F9",
"5	c #F3F7FA",
"6	c #F6F9FB",
"7	c #F9FBFD",
"8	c #FCFDFE",
"9	c #FFFFFF",
"     #####################################+     ",
"   .########################################+   ",
"  @###########################################  ",
" .############################################+ ",
" ############################################## ",
"######$)_}5961<~%##############################+",
"#####'29999999993!##############################",
"####;7999999999998>#############################",
"####3994/-$#$-]3993#############################",
"####999*#######%999#####&#######################",
"####999#########999####>9>######################",
"####999#########999###;5(5,#####################",
"####999#########999##>5,#;5>####################",
"####999#########999#;5>###>5,###################",
"####999#########999>5,#####;5>##################",
"####999#########9995>#######>5,#################",
"####999#########999,#####;39999999999999993,####",
"####999#########999#####'7999999999999999998!###",
"####999########;999####$299999999999999999993%##",
"####999#######>5999####)994*####;5>######%299~##",
"####999######;5>999####:99^######>5,######]99[##",
"####999#####>5,#999####|99-#######;5>#####=991##",
"####999####;5>##999####599$########>5,####$996##",
"####999###>5,###999####999##########;5>####999##",
"####999##&9(####999####999###########(9&###999##",
"####999###>5,###999####999##########;5>####999##",
"####999####;5>##999####599$########>5,####$996##",
"####999#####>5,#999####|99-#######;5>#####=991##",
"####999######;5>999####:99^######>5,######]99[##",
"####999#######>5999####)994*####;5>######%299~##",
"####999########;999####$299999999999999999993%##",
"####999#########999#####'7999999999999999998!###",
"####999#########999,#####;39999999999999993,####",
"####999#########9995>#######>5,#################",
"####999#########999>5,#####;5>##################",
"####999#########999#;5>###>5,###################",
"####999#########999##>5,#;5>####################",
"####999#########999###;5(5,#####################",
"####999#########999####>9>######################",
"####999*#######%999#####&#######################",
"####3994^=$#$=]2993#############################",
"####;8999999999998,#############################",
"#####'29999999993!#############################+",
" #####$):|5961[{%############################## ",
" .############################################+ ",
"  @###########################################  ",
"   +########################################+   ",
"     .####################################+     "};
